<svg width="38" height="55" viewBox="0 0 38 55" fill="none" xmlns="http://www.w3.org/2000/svg">
<path fill-rule="evenodd" clip-rule="evenodd" d="M30.1357 3.98051C29.7031 3.71949 29.2196 3.54195 28.6851 3.44789L27.4787 0.62618C27.3993 0.440603 27.3138 0.299869 27.2222 0.203978C27.1305 0.108086 27.0281 0.0463317 26.915 0.0187141C26.8019 -0.00890356 26.6765 -0.00595338 26.5389 0.0275652C26.4053 0.0508941 26.2565 0.0976536 26.0923 0.167843C25.9353 0.234981 25.7772 0.319446 25.6181 0.421238C25.456 0.515892 25.3387 0.587142 25.2663 0.634986L26.5339 3.59981C26.5003 3.60897 26.4666 3.61843 26.4328 3.62819C25.908 3.77964 25.4359 3.97086 25.0164 4.20185L23.9855 1.79058C23.9061 1.605 23.8206 1.46426 23.729 1.36837C23.6373 1.27248 23.5349 1.21073 23.4218 1.18311C23.3087 1.15549 23.1833 1.15844 23.0457 1.19196C22.9122 1.21529 22.7633 1.26205 22.5991 1.33224C22.4421 1.39938 22.2841 1.48384 22.125 1.58563C21.9628 1.68029 21.8455 1.75154 21.7731 1.79938L23.3866 5.57303C23.1551 5.86028 22.9596 6.16574 22.7999 6.48942C22.4848 7.15197 22.3045 7.85727 22.2591 8.60532C22.218 9.36845 22.3106 10.142 22.5368 10.926C22.7456 11.6496 23.034 12.3095 23.402 12.9056C23.77 13.5017 24.197 13.9909 24.683 14.3733C25.2598 14.8438 25.8497 14.992 26.4527 14.818L26.6562 14.7593C26.7467 14.7332 26.8274 14.7017 26.8985 14.6649L30.8321 13.0153C30.8796 13.0669 30.9284 13.1508 30.9782 13.2671C31.0281 13.3833 31.0639 13.4792 31.0857 13.5545C31.2815 14.233 31.1193 14.8596 30.5992 15.4343C30.0641 16.0133 29.2839 16.4508 28.2587 16.7467C27.3993 16.9946 26.5653 17.0475 25.7566 16.9052C25.6844 16.8931 25.6127 16.8798 25.5416 16.8651L25.1498 16.6285C24.1076 16.0258 23.1463 15.486 22.2659 15.0089C21.8642 14.7964 21.4946 14.6031 21.157 14.4288C20.9801 14.3286 20.8044 14.2387 20.63 14.1591C20.4472 14.0664 20.276 13.9807 20.1165 13.902C19.564 13.6411 18.895 13.614 18.1096 13.8205C17.4076 14.0266 16.6848 14.4065 15.9412 14.9603L15.7341 15.0696C14.8537 15.5467 13.8924 16.0866 12.8502 16.6892C11.8275 17.3072 10.7469 17.9587 9.60836 18.6436C8.47403 19.3634 7.34179 20.1007 6.21164 20.8554C5.08149 21.6101 3.98623 22.3606 2.92584 23.107C1.86545 23.8533 0.890172 24.5718 0 25.2623C0.0585619 25.7506 0.257334 26.3017 0.596318 26.9156C0.939483 27.5644 1.40404 28.119 1.98998 28.5795C2.71264 29.1474 3.42136 29.4516 4.11616 29.4921C4.81513 29.5675 5.59436 29.2794 6.45384 28.6279C8.48532 27.1283 10.4554 25.7067 12.3641 24.3633C14.277 23.0548 16.2708 21.6835 18.3455 20.2494L18.9062 19.7379L19.6545 20.1887C21.7292 21.6228 23.723 22.9941 25.6359 24.3026C27.5446 25.646 29.5147 27.0676 31.5462 28.5672C32.4056 29.2187 33.1849 29.5068 33.8839 29.4314C34.5786 29.3909 35.2874 29.0867 36.01 28.5188C36.596 28.0583 37.0605 27.5037 37.4037 26.8549C37.7427 26.241 37.9414 25.6899 38 25.2016C37.1098 24.5111 36.1346 23.7926 35.0742 23.0463C34.0138 22.2999 32.9185 21.5494 31.7884 20.7947C31.3614 20.5096 30.9342 20.227 30.5066 19.9468C31.9106 19.3617 32.939 18.5413 33.5921 17.4859C34.4011 16.1581 34.5381 14.5671 34.003 12.7127C33.8725 12.2604 33.6664 11.7727 33.3848 11.2497C33.0925 10.7461 32.7476 10.3149 32.35 9.95595C32.4396 9.58713 32.4826 9.14193 32.479 8.62032C32.4799 8.1138 32.3889 7.54393 32.2062 6.91072C32.0191 6.26243 31.7546 5.68547 31.4127 5.17985C31.0557 4.67858 30.6301 4.2788 30.1357 3.98051ZM24.5015 1.76679C24.5987 1.724 24.6972 1.68285 24.797 1.64335L24.5936 1.58619L24.5015 1.76679ZM25.7951 10.6716C25.8882 10.8244 25.978 10.9374 26.0644 11.0104L29.4944 9.65312C29.5413 9.47625 29.5786 9.29402 29.6061 9.10642C29.6185 8.92318 29.5856 8.69587 29.5073 8.4245C29.3681 7.94205 29.128 7.61937 28.787 7.45646C28.4309 7.2979 28.0041 7.29041 27.5066 7.43398C27.0694 7.56015 26.7077 7.72169 26.4215 7.91859C26.1354 8.11549 25.9182 8.32514 25.7701 8.54754C25.6112 8.78937 25.5192 9.03641 25.494 9.28866C25.4537 9.54526 25.4684 9.79417 25.538 10.0354C25.6163 10.3068 25.702 10.5189 25.7951 10.6716ZM22.78 54.4964C22.7477 54.4964 16.7154 54.4963 19.6832 54.4962C17.5879 54.4842 12.7764 54.0843 11.2485 53.2964C9.7226 52.4964 8.54 51.3764 7.70074 49.9364C6.88692 48.4964 6.48 46.8164 6.48 44.8964V43.5364V42.4564V29.4564C6.78519 29.4031 7.23025 29.3364 7.81519 29.2564C8.42556 29.1497 9.0105 29.0964 9.57 29.0964C10.8416 29.0964 11.7572 29.3231 12.3167 29.7764C12.8762 30.2297 13.1559 31.1097 13.1559 32.4164V42.4564V43.5364V44.7764C13.1559 46.0297 13.4865 47.0297 14.1478 47.7764C14.8141 48.4751 18.66 48.8348 19.6856 48.8555C16.7169 48.8561 22.7484 48.8564 22.78 48.8564C22.8116 48.8564 22.8431 48.8561 22.8744 48.8555C23.8992 48.8348 24.7324 48.4751 25.3741 47.7764C26.0607 47.0297 26.4041 46.0297 26.4041 44.7764V43.6164V42.4564V29.4564C26.7093 29.4031 27.1543 29.3364 27.7393 29.2564C28.3496 29.1497 28.9346 29.0964 29.4941 29.0964C30.7657 29.0964 31.6812 29.3231 32.2407 29.7764C32.8003 30.2297 33.08 31.1097 33.08 32.4164V42.4564V43.6164V44.8964C33.08 46.8164 32.6604 48.4964 31.8211 49.9364C31.0073 51.3764 29.8247 52.4964 28.2733 53.2964C26.7698 54.0847 24.9701 54.4846 22.874 54.4962L22.78 54.4964Z" fill="#FF1796"/>
</svg>
