<svg width="136" height="48" viewBox="0 0 136 48" fill="none" xmlns="http://www.w3.org/2000/svg">
<path d="M28.264 36.832C28.264 37.984 28.0613 39.04 27.656 40C27.272 40.9387 26.7067 41.7494 25.96 42.432C25.2133 43.0934 24.3067 43.6054 23.24 43.968C22.1733 44.3307 18.968 44.512 17.624 44.512C14.28 44.512 13.0747 44.3307 12.008 43.968C10.9413 43.6054 10.0347 43.0934 9.28801 42.432C8.54134 41.7494 7.96534 40.9387 7.56001 40C7.17601 39.04 6.98401 37.984 6.98401 36.832V24.608C7.21868 24.5654 7.59201 24.512 8.10401 24.448C8.61601 24.3627 9.10668 24.32 9.57601 24.32C10.0667 24.32 10.4933 24.3627 10.856 24.448C11.24 24.512 11.56 24.64 11.816 24.832C12.072 25.024 12.264 25.2907 12.392 25.632C12.52 25.9734 12.584 26.4214 12.584 26.976V36.736C12.584 37.76 12.8613 38.56 13.416 39.136C13.992 39.712 14.728 40 17.624 40C18.5413 40 21.2773 39.712 21.832 39.136C22.3867 38.56 22.664 37.76 22.664 36.736V24.608C22.8987 24.5654 23.272 24.512 23.784 24.448C24.296 24.3627 24.7867 24.32 25.256 24.32C25.7467 24.32 26.1733 24.3627 26.536 24.448C26.92 24.512 27.24 24.64 27.496 24.832C27.752 25.024 27.944 25.2907 28.072 25.632C28.2 25.9734 28.264 26.4214 28.264 26.976V36.832Z" fill="#FF80CA"/>
<path fill-rule="evenodd" clip-rule="evenodd" d="M25.3668 2.9611C25.8258 3.04189 26.2411 3.19436 26.6126 3.41852C27.0372 3.67471 27.4027 4.01804 27.7093 4.44854C28.0029 4.88278 28.2301 5.37828 28.3908 5.93504C28.5477 6.47885 28.6258 6.96826 28.6251 7.40327C28.6281 7.85123 28.5912 8.23359 28.5143 8.55033C28.8557 8.85856 29.1519 9.22893 29.403 9.66143C29.6448 10.1106 29.8218 10.5294 29.9339 10.9179C30.3935 12.5104 30.2758 13.8769 29.581 15.0172C29.0202 15.9236 28.1369 16.6281 26.9312 17.1307C27.2983 17.3713 27.6653 17.614 28.0319 17.8588C29.0025 18.507 29.9432 19.1515 30.8538 19.7925C31.7645 20.4335 32.6021 21.0505 33.3666 21.6436C33.3163 22.0629 33.1456 22.5362 32.8545 23.0635C32.5597 23.6206 32.1608 24.097 31.6576 24.4924C31.0369 24.9801 30.4283 25.2414 29.8316 25.2762C29.2313 25.3409 28.5621 25.0935 27.8239 24.534C26.0793 23.2461 24.3873 22.0252 22.7481 20.8715C21.1053 19.7477 19.393 18.57 17.6112 17.3384L16.9685 16.9513L16.487 17.3905C14.7052 18.6221 12.9929 19.7998 11.3501 20.9236C9.71084 22.0774 8.0189 23.2982 6.27423 24.5861C5.5361 25.1456 4.86688 25.393 4.26659 25.3283C3.66989 25.2935 3.06122 25.0322 2.44059 24.5445C1.93738 24.1491 1.53841 23.6728 1.24369 23.1156C0.95257 22.5884 0.781861 22.1151 0.731567 21.6957C1.49606 21.1026 2.33365 20.4856 3.24433 19.8446C4.155 19.2037 5.09564 18.5591 6.06623 17.911C7.03681 17.2628 8.0092 16.6296 8.98338 16.0114C9.96115 15.4232 10.8892 14.8637 11.7675 14.3329C12.6626 13.8154 13.4882 13.3517 14.2443 12.942L14.4221 12.8481C15.0608 12.3725 15.6815 12.0463 16.2843 11.8693C16.9589 11.6919 17.5335 11.7152 18.008 11.9393C18.1448 12.0068 18.2918 12.0804 18.4488 12.16C18.5987 12.2284 18.7497 12.3057 18.9017 12.3918C19.1916 12.5415 19.509 12.7075 19.8539 12.8899C20.61 13.2996 21.4355 13.7633 22.3306 14.2808C22.442 14.3481 22.5541 14.4158 22.6671 14.484C22.7282 14.4966 22.7898 14.5081 22.8518 14.5185C23.5463 14.6407 24.2625 14.5953 25.0006 14.3823C25.881 14.1282 26.5511 13.7525 27.0107 13.2552C27.4573 12.7616 27.5966 12.2235 27.4285 11.6409C27.4098 11.5761 27.379 11.4938 27.3362 11.394C27.2933 11.2941 27.2515 11.2221 27.2107 11.1777L23.8324 12.5944C23.7714 12.6261 23.7021 12.6531 23.6244 12.6755L23.4496 12.726C22.9317 12.8754 22.4251 12.7481 21.9297 12.344C21.5124 12.0156 21.1457 11.5955 20.8296 11.0835C20.5136 10.5716 20.2659 10.0049 20.0865 9.38341C19.8922 8.71012 19.8127 8.04578 19.848 7.39039C19.887 6.74795 20.0419 6.14223 20.3125 5.57322C20.4496 5.29524 20.6176 5.0329 20.8163 4.78621L19.4307 1.54534C19.4929 1.50425 19.5936 1.44306 19.7328 1.36177C19.8695 1.27435 20.0052 1.20181 20.1401 1.14415C20.2811 1.08387 20.4089 1.04371 20.5236 1.02367C20.6418 0.994887 20.7495 0.992353 20.8466 1.01607C20.9438 1.03979 21.0317 1.09283 21.1104 1.17518C21.1891 1.25753 21.2625 1.3784 21.3307 1.53777L22.2161 3.60862C22.5763 3.41024 22.9818 3.24602 23.4325 3.11595C23.4615 3.10757 23.4905 3.09944 23.5193 3.09158L22.4307 0.545336C22.4929 0.504247 22.5936 0.443056 22.7328 0.361766C22.8695 0.274346 23.0052 0.201806 23.1401 0.144147C23.2811 0.0838664 23.4089 0.0437086 23.5236 0.0236734C23.6418 -0.00511292 23.7495 -0.00764659 23.8466 0.0160719C23.9438 0.0397904 24.0317 0.0928263 24.1104 0.175179C24.1891 0.257532 24.2625 0.378397 24.3307 0.537774L25.3668 2.9611ZM22.0277 1.41134C21.9419 1.44526 21.8573 1.48059 21.7739 1.51734L21.8529 1.36225L22.0277 1.41134ZM23.1161 9.45592C23.0419 9.39318 22.9648 9.2962 22.8848 9.16498C22.8049 9.03376 22.7313 8.85162 22.664 8.61856C22.6042 8.4114 22.5916 8.19763 22.6262 7.97725C22.6479 7.76061 22.7269 7.54845 22.8633 7.34077C22.9906 7.14977 23.1771 6.96971 23.4228 6.80061C23.6686 6.63151 23.9792 6.49278 24.3547 6.38442C24.7819 6.26112 25.1485 6.26756 25.4543 6.40373C25.7471 6.54364 25.9533 6.82076 26.0729 7.2351C26.1402 7.46816 26.1684 7.66337 26.1577 7.82075C26.1341 7.98186 26.1021 8.13836 26.0618 8.29026L23.1161 9.45592Z" fill="#FF80CA"/>
<path d="M130.44 41.968C130.227 42.032 129.885 42.096 129.416 42.16C128.968 42.224 128.499 42.256 128.008 42.256C127.539 42.256 127.112 42.224 126.728 42.16C126.365 42.096 126.056 41.968 125.8 41.776C125.544 41.584 125.341 41.328 125.192 41.008C125.064 40.6667 125 40.2294 125 39.696V30.096C125 29.6054 125.085 29.1894 125.256 28.848C125.448 28.4854 125.715 28.1654 126.056 27.888C126.397 27.6107 126.813 27.3654 127.304 27.152C127.816 26.9174 128.36 26.7147 128.936 26.544C129.512 26.3734 130.109 26.2454 130.728 26.16C131.347 26.0534 131.965 26 132.584 26C133.608 26 134.419 26.2027 135.016 26.608C135.613 26.992 135.912 27.632 135.912 28.528C135.912 28.8267 135.869 29.1254 135.784 29.424C135.699 29.7014 135.592 29.9574 135.464 30.192C135.016 30.192 134.557 30.2134 134.088 30.256C133.619 30.2987 133.16 30.3627 132.712 30.448C132.264 30.5334 131.837 30.6294 131.432 30.736C131.048 30.8214 130.717 30.928 130.44 31.056V41.968Z" fill="#1D1D1D"/>
<path d="M116.896 42.5121C115.637 42.5121 114.464 42.3414 113.376 42.0001C112.309 41.6374 111.371 41.1041 110.56 40.4001C109.771 39.6961 109.141 38.8107 108.672 37.7441C108.224 36.6774 108 35.4294 108 34.0001C108 32.5921 108.224 31.3867 108.672 30.3841C109.141 29.3601 109.749 28.5281 110.496 27.8881C111.243 27.2267 112.096 26.7467 113.056 26.4481C114.016 26.1281 114.997 25.9681 116 25.9681C117.131 25.9681 118.155 26.1387 119.072 26.4801C120.011 26.8214 120.811 27.2907 121.472 27.8881C122.155 28.4854 122.677 29.2001 123.04 30.0321C123.424 30.8641 123.616 31.7707 123.616 32.7521C123.616 33.4774 123.413 34.0321 123.008 34.4161C122.603 34.8001 122.037 35.0454 121.312 35.1521L113.408 36.3361C113.643 37.0401 114.123 37.5734 114.848 37.9361C115.573 38.2774 116.405 38.4481 117.344 38.4481C118.219 38.4481 119.04 38.3414 119.808 38.1281C120.597 37.8934 121.237 37.6267 121.728 37.3281C122.069 37.5414 122.357 37.8401 122.592 38.2241C122.827 38.6081 122.944 39.0134 122.944 39.4401C122.944 40.4001 122.496 41.1147 121.6 41.5841C120.917 41.9467 120.149 42.1921 119.296 42.3201C118.443 42.4481 117.643 42.5121 116.896 42.5121ZM116 29.9361C115.488 29.9361 115.04 30.0214 114.656 30.1921C114.293 30.3627 113.995 30.5867 113.76 30.8641C113.525 31.1201 113.344 31.4187 113.216 31.7601C113.109 32.0801 113.045 32.4107 113.024 32.7521L118.496 31.8561C118.432 31.4294 118.197 31.0027 117.792 30.5761C117.387 30.1494 116.789 29.9361 116 29.9361Z" fill="#1D1D1D"/>
<path d="M91 34.2241C91 32.8161 91.2133 31.6001 91.64 30.5761C92.0667 29.5307 92.6533 28.6667 93.4 27.9841C94.168 27.3014 95.0533 26.8001 96.056 26.4801C97.08 26.1387 98.1787 25.9681 99.352 25.9681C99.7787 25.9681 100.195 26.0107 100.6 26.0961C101.005 26.1601 101.336 26.2454 101.592 26.3521V21.1681C101.805 21.1041 102.147 21.0401 102.616 20.9761C103.085 20.8907 103.565 20.8481 104.056 20.8481C104.525 20.8481 104.941 20.8801 105.304 20.9441C105.688 21.0081 106.008 21.1361 106.264 21.3281C106.52 21.5201 106.712 21.7867 106.84 22.1281C106.968 22.4481 107.032 22.8747 107.032 23.4081V38.5761C107.032 39.5787 106.563 40.3787 105.624 40.9761C105.005 41.3814 104.205 41.7334 103.224 42.0321C102.243 42.3521 101.112 42.5121 99.832 42.5121C98.4453 42.5121 97.1973 42.3201 96.088 41.9361C95 41.5521 94.072 40.9974 93.304 40.2721C92.5573 39.5467 91.9813 38.6827 91.576 37.6801C91.192 36.6561 91 35.5041 91 34.2241ZM100.088 30.2241C98.936 30.2241 98.0507 30.5547 97.432 31.2161C96.8133 31.8774 96.504 32.8801 96.504 34.2241C96.504 35.5467 96.792 36.5494 97.368 37.2321C97.944 37.8934 98.776 38.2241 99.864 38.2241C100.248 38.2241 100.589 38.1707 100.888 38.0641C101.208 37.9361 101.453 37.7974 101.624 37.6481V30.6081C101.197 30.3521 100.685 30.2241 100.088 30.2241Z" fill="#1D1D1D"/>
<path d="M82.424 38.576C82.7867 38.576 83.1813 38.544 83.608 38.48C84.056 38.3946 84.3867 38.288 84.6 38.16V35.6L82.296 35.792C81.6987 35.8346 81.208 35.9626 80.824 36.176C80.44 36.3893 80.248 36.7093 80.248 37.136C80.248 37.5626 80.408 37.9146 80.728 38.192C81.0693 38.448 81.6347 38.576 82.424 38.576ZM82.168 26C83.32 26 84.3653 26.1173 85.304 26.352C86.264 26.5866 87.0747 26.9493 87.736 27.44C88.4187 27.9093 88.9413 28.5173 89.304 29.264C89.6667 29.9893 89.848 30.8533 89.848 31.856V39.024C89.848 39.5786 89.688 40.0373 89.368 40.4C89.0693 40.7413 88.7067 41.04 88.28 41.296C86.8933 42.128 84.9413 42.544 82.424 42.544C81.2933 42.544 80.2693 42.4373 79.352 42.224C78.456 42.0106 77.6773 41.6906 77.016 41.264C76.376 40.8373 75.8747 40.2933 75.512 39.632C75.1707 38.9706 75 38.2026 75 37.328C75 35.856 75.4373 34.7253 76.312 33.936C77.1867 33.1466 78.5413 32.656 80.376 32.464L84.568 32.016V31.792C84.568 31.1733 84.2907 30.736 83.736 30.48C83.2027 30.2026 82.424 30.064 81.4 30.064C80.5893 30.064 79.8 30.1493 79.032 30.32C78.264 30.4906 77.5707 30.704 76.952 30.96C76.6747 30.768 76.44 30.48 76.248 30.096C76.056 29.6906 75.96 29.2746 75.96 28.848C75.96 28.2933 76.088 27.856 76.344 27.536C76.6213 27.1946 77.0373 26.9066 77.592 26.672C78.2107 26.4373 78.936 26.2666 79.768 26.16C80.6213 26.0533 81.4213 26 82.168 26Z" fill="#1D1D1D"/>
<path d="M69.979 41.968C69.7657 42.032 69.4243 42.096 68.955 42.16C68.507 42.224 68.0377 42.256 67.547 42.256C67.0777 42.256 66.651 42.224 66.267 42.16C65.9043 42.096 65.595 41.968 65.339 41.776C65.083 41.584 64.8803 41.328 64.731 41.008C64.603 40.6667 64.539 40.2294 64.539 39.696V30.096C64.539 29.6054 64.6243 29.1894 64.795 28.848C64.987 28.4854 65.2537 28.1654 65.595 27.888C65.9363 27.6107 66.3523 27.3654 66.843 27.152C67.355 26.9174 67.899 26.7147 68.475 26.544C69.051 26.3734 69.6483 26.2454 70.267 26.16C70.8857 26.0534 71.5043 26 72.123 26C73.147 26 73.9577 26.2027 74.555 26.608C75.1523 26.992 75.451 27.632 75.451 28.528C75.451 28.8267 75.4083 29.1254 75.323 29.424C75.2377 29.7014 75.131 29.9574 75.003 30.192C74.555 30.192 74.0963 30.2134 73.627 30.256C73.1577 30.2987 72.699 30.3627 72.251 30.448C71.803 30.5334 71.3763 30.6294 70.971 30.736C70.587 30.8214 70.2563 30.928 69.979 31.056V41.968Z" fill="#1D1D1D"/>
<path d="M55.9668 25.9681C57.1828 25.9681 58.2814 26.1281 59.2628 26.4481C60.2654 26.7467 61.1081 27.1414 61.7907 27.6321C62.2174 27.9307 62.5481 28.2614 62.7828 28.6241C63.0388 28.9867 63.1667 29.4561 63.1667 30.0321V41.2321C63.1667 42.3627 62.9534 43.3334 62.5267 44.1441C62.1001 44.9761 61.5134 45.6587 60.7668 46.1921C60.0414 46.7467 59.1774 47.1521 58.1748 47.4081C57.1934 47.6641 56.1374 47.7921 55.0068 47.7921C53.0654 47.7921 51.5401 47.5254 50.4307 46.9921C49.3214 46.4801 48.7668 45.6374 48.7668 44.4641C48.7668 43.9734 48.8628 43.5361 49.0548 43.1521C49.2681 42.7894 49.5028 42.5121 49.7588 42.3201C50.3774 42.6614 51.0708 42.9494 51.8388 43.1841C52.6281 43.4187 53.4387 43.5361 54.2708 43.5361C55.4227 43.5361 56.3401 43.3441 57.0228 42.9601C57.7054 42.5761 58.0467 41.9574 58.0467 41.1041V40.5921C57.1721 40.9761 56.1054 41.1681 54.8468 41.1681C53.8868 41.1681 52.9694 41.0294 52.0947 40.7521C51.2414 40.4534 50.4841 40.0054 49.8228 39.4081C49.1827 38.7894 48.6601 38.0001 48.2547 37.0401C47.8707 36.0801 47.6787 34.9387 47.6787 33.6161C47.6787 32.3147 47.8814 31.1841 48.2868 30.2241C48.7134 29.2641 49.2894 28.4747 50.0147 27.8561C50.7614 27.2161 51.6361 26.7467 52.6388 26.4481C53.6628 26.1281 54.7721 25.9681 55.9668 25.9681ZM57.9508 30.6081C57.8014 30.5227 57.5774 30.4374 57.2788 30.3521C57.0014 30.2667 56.6494 30.2241 56.2228 30.2241C55.1774 30.2241 54.3881 30.5227 53.8547 31.1201C53.3428 31.6961 53.0868 32.5281 53.0868 33.6161C53.0868 34.8534 53.3428 35.7494 53.8547 36.3041C54.3881 36.8374 55.0601 37.1041 55.8708 37.1041C56.7454 37.1041 57.4388 36.9014 57.9508 36.4961V30.6081Z" fill="#1D1D1D"/>
<path d="M37.8 25.9681C39.08 25.9681 40.264 26.1387 41.352 26.4801C42.4613 26.8001 43.4107 27.3014 44.2 27.9841C44.9893 28.6667 45.608 29.5307 46.056 30.5761C46.504 31.6001 46.728 32.8267 46.728 34.2561C46.728 35.6214 46.536 36.8161 46.152 37.8401C45.768 38.8641 45.224 39.7281 44.52 40.4321C43.816 41.1147 42.9627 41.6267 41.96 41.9681C40.9787 42.3094 39.88 42.4801 38.664 42.4801C37.7467 42.4801 36.8933 42.3414 36.104 42.0641V47.3761C35.8907 47.4401 35.5493 47.5041 35.08 47.5681C34.6107 47.6534 34.1307 47.6961 33.64 47.6961C33.1707 47.6961 32.744 47.6641 32.36 47.6001C31.9973 47.5361 31.688 47.4081 31.432 47.2161C31.176 47.0241 30.984 46.7574 30.856 46.4161C30.728 46.0961 30.664 45.6694 30.664 45.1361V29.7761C30.664 29.2001 30.7813 28.7307 31.016 28.3681C31.272 28.0054 31.6133 27.6747 32.04 27.3761C32.7013 26.9494 33.5227 26.6081 34.504 26.3521C35.4853 26.0961 36.584 25.9681 37.8 25.9681ZM37.864 38.1921C40.0613 38.1921 41.16 36.8801 41.16 34.2561C41.16 32.8907 40.8827 31.8774 40.328 31.2161C39.7947 30.5547 39.016 30.2241 37.992 30.2241C37.5867 30.2241 37.224 30.2774 36.904 30.3841C36.584 30.4694 36.3067 30.5761 36.072 30.7041V37.7441C36.328 37.8721 36.6053 37.9787 36.904 38.0641C37.2027 38.1494 37.5227 38.1921 37.864 38.1921Z" fill="#1D1D1D"/>
</svg>
