<svg width="181" height="63" viewBox="0 0 181 63" fill="none" xmlns="http://www.w3.org/2000/svg">
<path d="M47.029 54.4214C49.093 54.4214 50.9277 53.9914 52.533 53.1314C54.167 52.2714 55.457 51.0101 56.403 49.3474C57.349 47.6848 57.822 45.6351 57.822 43.1984C57.822 40.6471 57.3347 38.5688 56.36 36.9634C55.3853 35.3294 54.0237 34.1398 52.275 33.3944C50.5263 32.6204 48.491 32.2334 46.169 32.2334C44.4777 32.2334 42.9297 32.4198 41.525 32.7924C40.1203 33.1364 38.9737 33.5951 38.085 34.1684C37.5117 34.5411 37.053 34.9854 36.709 35.5014C36.3937 36.0174 36.236 36.6624 36.236 37.4364V51.4114H43.503V38.5974C43.8183 38.4254 44.2053 38.2821 44.664 38.1674C45.1227 38.0241 45.6243 37.9524 46.169 37.9524C47.0863 37.9524 47.846 38.1388 48.448 38.5114C49.0787 38.8841 49.5517 39.4574 49.867 40.2314C50.1823 40.9768 50.34 41.9658 50.34 43.1984C50.34 44.9758 49.953 46.3374 49.179 47.2834C48.4337 48.2008 47.3443 48.6594 45.911 48.6594C45.1083 48.6594 44.3917 48.5018 43.761 48.1864C43.1303 47.8711 42.5713 47.5271 42.084 47.1544V53.2604C42.772 53.5758 43.503 53.8481 44.277 54.0774C45.0797 54.3068 45.997 54.4214 47.029 54.4214ZM43.546 49.6484H36.236V58.3774C36.236 59.6961 36.5513 60.5991 37.182 61.0864C37.8413 61.5738 38.8733 61.8174 40.278 61.8174C40.966 61.8174 41.5967 61.7744 42.17 61.6884C42.772 61.6024 43.2307 61.5164 43.546 61.4304V49.6484Z" fill="black"/>
<path d="M69.1723 52.9164C67.4523 52.9164 65.8613 52.5868 64.3993 51.9274C62.9373 51.2681 61.762 50.1931 60.8733 48.7024C60.0133 47.1831 59.5833 45.1908 59.5833 42.7254C59.5833 40.4321 60.042 38.5114 60.9593 36.9634C61.8767 35.3868 63.1667 34.2114 64.8293 33.4374C66.5207 32.6348 68.4843 32.2334 70.7203 32.2334C72.3543 32.2334 73.8593 32.4484 75.2353 32.8784C76.64 33.3084 77.715 33.7671 78.4603 34.2544C79.0337 34.6271 79.478 35.0714 79.7933 35.5874C80.1373 36.1034 80.3093 36.7484 80.3093 37.5224V51.0674H73.3003V38.4684C73.0137 38.3251 72.6983 38.2104 72.3543 38.1244C72.0103 38.0098 71.566 37.9524 71.0213 37.9524C69.7887 37.9524 68.7853 38.3394 68.0113 39.1134C67.2373 39.8588 66.8503 41.0771 66.8503 42.7684C66.8503 44.5744 67.1943 45.8071 67.8823 46.4664C68.599 47.1258 69.4877 47.4554 70.5483 47.4554C71.4083 47.4554 72.125 47.3121 72.6983 47.0254C73.2717 46.7101 73.7877 46.3661 74.2463 45.9934L74.4613 51.7124C73.802 52.0564 73.0423 52.3431 72.1823 52.5724C71.351 52.8018 70.3477 52.9164 69.1723 52.9164ZM73.4293 53.3034V49.4334H80.3093V53.4754C80.3093 55.4821 79.822 57.1304 78.8473 58.4204C77.8727 59.7391 76.554 60.7138 74.8913 61.3444C73.2573 61.9751 71.4227 62.2904 69.3873 62.2904C67.868 62.2904 66.5063 62.1614 65.3023 61.9034C64.127 61.6741 63.1953 61.3301 62.5073 60.8714C61.4753 60.1834 60.9593 59.2088 60.9593 57.9474C60.9593 57.2881 61.0883 56.6861 61.3463 56.1414C61.633 55.5968 61.9483 55.1954 62.2923 54.9374C63.1237 55.3961 64.0553 55.7831 65.0873 56.0984C66.148 56.4138 67.2517 56.5714 68.3983 56.5714C69.9177 56.5714 71.136 56.3134 72.0533 55.7974C72.9707 55.2814 73.4293 54.4501 73.4293 53.3034Z" fill="black"/>
<path d="M90.0028 39.0274V43.9294H82.6928V37.9094C82.6928 37.0781 82.9078 36.3614 83.3378 35.7594C83.7965 35.1288 84.3841 34.5841 85.1008 34.1254C86.1041 33.5234 87.2795 33.0648 88.6268 32.7494C89.9741 32.4341 91.3645 32.2764 92.7978 32.2764C95.9225 32.2764 97.4848 33.3801 97.4848 35.5874C97.4848 36.1034 97.4131 36.5908 97.2698 37.0494C97.1265 37.4794 96.9545 37.8521 96.7538 38.1674C96.4671 38.1101 96.1231 38.0671 95.7218 38.0384C95.3205 38.0098 94.8761 37.9954 94.3888 37.9954C93.6721 37.9954 92.9125 38.0814 92.1098 38.2534C91.3071 38.4254 90.6048 38.6834 90.0028 39.0274ZM82.6928 42.4244H90.0028V53.7334C89.6875 53.8194 89.2288 53.9054 88.6268 53.9914C88.0535 54.0774 87.4228 54.1204 86.7348 54.1204C85.3301 54.1204 84.2981 53.8768 83.6388 53.3894C83.0081 52.9021 82.6928 51.9991 82.6928 50.6804V42.4244Z" fill="black"/>
<path d="M108.026 49.1324C108.513 49.1324 109.043 49.0894 109.617 49.0034C110.219 48.8888 110.663 48.7454 110.95 48.5734V45.1334L107.854 45.3914C107.051 45.4488 106.392 45.6208 105.876 45.9074C105.36 46.1941 105.102 46.6241 105.102 47.1974C105.102 47.7708 105.317 48.2438 105.747 48.6164C106.205 48.9604 106.965 49.1324 108.026 49.1324ZM107.682 32.2334C110.806 32.2334 113.3 32.8784 115.164 34.1684C117.056 35.4298 118.002 37.4078 118.002 40.1024V49.7344C118.002 50.4798 117.787 51.0961 117.357 51.5834C116.955 52.0421 116.468 52.4434 115.895 52.7874C114.977 53.3321 113.859 53.7478 112.541 54.0344C111.222 54.3211 109.717 54.4644 108.026 54.4644C105.016 54.4644 102.593 53.8911 100.759 52.7444C98.9525 51.5691 98.0495 49.8061 98.0495 47.4554C98.0495 45.4774 98.6372 43.9581 99.8125 42.8974C101.017 41.8368 102.837 41.1774 105.274 40.9194L110.907 40.3174V40.0164C110.907 39.1851 110.534 38.5974 109.789 38.2534C109.072 37.8808 108.026 37.6944 106.65 37.6944C105.589 37.6944 104.528 37.8091 103.468 38.0384C102.436 38.2678 101.504 38.5544 100.673 38.8984C100.3 38.6404 99.9845 38.2534 99.7265 37.7374C99.4685 37.1928 99.3395 36.6338 99.3395 36.0604C99.3395 34.6844 100.071 33.7098 101.533 33.1364C102.364 32.8211 103.339 32.5918 104.457 32.4484C105.603 32.3051 106.678 32.2334 107.682 32.2334Z" fill="black"/>
<path d="M134.124 48.1434V35.6734H141.391V49.1754C141.391 49.8921 141.233 50.5084 140.918 51.0244C140.631 51.5404 140.158 51.9991 139.499 52.4004C138.668 52.9451 137.593 53.4181 136.274 53.8194C134.955 54.2494 133.45 54.4644 131.759 54.4644C129.265 54.4644 127.129 54.0488 125.352 53.2174C123.575 52.3861 122.213 51.1534 121.267 49.5194C120.321 47.8568 119.848 45.8214 119.848 43.4134C119.848 40.8908 120.335 38.8124 121.31 37.1784C122.285 35.5158 123.603 34.2831 125.266 33.4804C126.957 32.6491 128.835 32.2334 130.899 32.2334C131.902 32.2334 132.777 32.3338 133.522 32.5344C134.267 32.7351 134.884 32.9644 135.371 33.2224V39.1564C134.998 38.8698 134.511 38.5974 133.909 38.3394C133.336 38.0814 132.676 37.9524 131.931 37.9524C130.956 37.9524 130.111 38.1531 129.394 38.5544C128.706 38.9558 128.176 39.5578 127.803 40.3604C127.43 41.1631 127.244 42.1808 127.244 43.4134C127.244 45.2194 127.631 46.5524 128.405 47.4124C129.208 48.2724 130.312 48.7024 131.716 48.7024C132.232 48.7024 132.705 48.6451 133.135 48.5304C133.565 48.3871 133.895 48.2581 134.124 48.1434ZM141.391 37.0494H134.081V25.7404C134.396 25.6544 134.841 25.5684 135.414 25.4824C136.016 25.3964 136.661 25.3534 137.349 25.3534C138.782 25.3534 139.814 25.5971 140.445 26.0844C141.076 26.5431 141.391 27.4461 141.391 28.7934V37.0494Z" fill="black"/>
<path d="M147.752 46.5954L147.494 41.7794L157.427 40.1454C157.37 39.5721 157.083 38.9988 156.567 38.4254C156.051 37.8521 155.249 37.5654 154.159 37.5654C153.013 37.5654 152.052 37.9381 151.278 38.6834C150.533 39.4288 150.132 40.4894 150.074 41.8654L150.332 45.4774C150.619 46.7961 151.264 47.7134 152.267 48.2294C153.299 48.7454 154.446 49.0034 155.707 49.0034C156.911 49.0034 158.058 48.8458 159.147 48.5304C160.237 48.2151 161.111 47.8711 161.77 47.4984C162.229 47.7851 162.616 48.1864 162.931 48.7024C163.247 49.2184 163.404 49.7631 163.404 50.3364C163.404 51.2824 163.046 52.0708 162.329 52.7014C161.641 53.3034 160.681 53.7478 159.448 54.0344C158.216 54.3211 156.797 54.4644 155.191 54.4644C152.955 54.4644 150.934 54.0488 149.128 53.2174C147.351 52.3574 145.932 51.0818 144.871 49.3904C143.839 47.6991 143.323 45.5778 143.323 43.0264C143.323 41.1344 143.624 39.5004 144.226 38.1244C144.857 36.7484 145.688 35.6304 146.72 34.7704C147.752 33.9104 148.899 33.2798 150.16 32.8784C151.45 32.4484 152.769 32.2334 154.116 32.2334C156.152 32.2334 157.929 32.6348 159.448 33.4374C160.968 34.2114 162.157 35.2864 163.017 36.6624C163.877 38.0098 164.307 39.5721 164.307 41.3494C164.307 42.3241 164.035 43.0694 163.49 43.5854C162.946 44.1014 162.186 44.4311 161.211 44.5744L147.752 46.5954Z" fill="black"/>
<path d="M173.416 39.0274V43.9294H166.106V37.9094C166.106 37.0781 166.321 36.3614 166.751 35.7594C167.21 35.1288 167.797 34.5841 168.514 34.1254C169.517 33.5234 170.693 33.0648 172.04 32.7494C173.387 32.4341 174.778 32.2764 176.211 32.2764C179.336 32.2764 180.898 33.3801 180.898 35.5874C180.898 36.1034 180.826 36.5908 180.683 37.0494C180.54 37.4794 180.368 37.8521 180.167 38.1674C179.88 38.1101 179.536 38.0671 179.135 38.0384C178.734 38.0098 178.289 37.9954 177.802 37.9954C177.085 37.9954 176.326 38.0814 175.523 38.2534C174.72 38.4254 174.018 38.6834 173.416 39.0274ZM166.106 42.4244H173.416V53.7334C173.101 53.8194 172.642 53.9054 172.04 53.9914C171.467 54.0774 170.836 54.1204 170.148 54.1204C168.743 54.1204 167.711 53.8768 167.052 53.3894C166.421 52.9021 166.106 51.9991 166.106 50.6804V42.4244Z" fill="black"/>
<path fill-rule="evenodd" clip-rule="evenodd" d="M30.1357 3.98051C29.7031 3.71949 29.2196 3.54195 28.6851 3.44789L27.4787 0.626181C27.3993 0.440603 27.3138 0.299869 27.2222 0.203978C27.1305 0.108087 27.0281 0.0463321 26.915 0.0187144C26.8019 -0.00890324 26.6765 -0.00595305 26.5389 0.0275656C26.4053 0.0508945 26.2565 0.0976539 26.0923 0.167844C25.9353 0.234982 25.7772 0.319447 25.6181 0.421238C25.456 0.515892 25.3387 0.587142 25.2663 0.634986L26.5339 3.59981C26.5003 3.60897 26.4666 3.61843 26.4328 3.62819C25.908 3.77964 25.4359 3.97086 25.0164 4.20185L23.9855 1.79058C23.9061 1.605 23.8206 1.46426 23.729 1.36837C23.6373 1.27248 23.5349 1.21073 23.4218 1.18311C23.3087 1.15549 23.1833 1.15844 23.0457 1.19196C22.9122 1.21529 22.7633 1.26205 22.5991 1.33224C22.4421 1.39938 22.2841 1.48384 22.125 1.58563C21.9628 1.68029 21.8455 1.75154 21.7731 1.79938L23.3866 5.57303C23.1551 5.86028 22.9596 6.16574 22.7999 6.48942C22.4848 7.15197 22.3045 7.85727 22.2591 8.60532C22.218 9.36845 22.3106 10.142 22.5368 10.926C22.7456 11.6496 23.034 12.3095 23.402 12.9056C23.77 13.5017 24.197 13.9909 24.683 14.3733C25.2598 14.8438 25.8497 14.992 26.4527 14.818L26.6562 14.7593C26.7467 14.7332 26.8274 14.7017 26.8985 14.6649L30.8321 13.0153C30.8796 13.0669 30.9284 13.1508 30.9782 13.2671C31.0281 13.3833 31.0639 13.4792 31.0857 13.5545C31.2815 14.233 31.1193 14.8596 30.5992 15.4343C30.0641 16.0133 29.2839 16.4508 28.2587 16.7467C27.3993 16.9946 26.5653 17.0475 25.7566 16.9052C25.6844 16.8931 25.6127 16.8798 25.5416 16.8651L25.1498 16.6285C24.1076 16.0259 23.1463 15.486 22.2659 15.0089C21.8642 14.7964 21.4946 14.6031 21.157 14.4288C20.9801 14.3286 20.8044 14.2387 20.63 14.1591C20.4472 14.0664 20.276 13.9807 20.1165 13.902C19.564 13.6411 18.895 13.614 18.1096 13.8205C17.4076 14.0266 16.6848 14.4065 15.9412 14.9603L15.7341 15.0696C14.8537 15.5467 13.8924 16.0866 12.8502 16.6892C11.8275 17.3072 10.7469 17.9587 9.60836 18.6436C8.47403 19.3634 7.34179 20.1007 6.21164 20.8554C5.08149 21.6101 3.98623 22.3606 2.92584 23.107C1.86545 23.8533 0.890172 24.5718 0 25.2623C0.0585619 25.7506 0.257334 26.3017 0.596318 26.9156C0.939483 27.5644 1.40404 28.119 1.98998 28.5795C2.71264 29.1474 3.42136 29.4516 4.11616 29.4921C4.81513 29.5675 5.59436 29.2794 6.45384 28.6279C8.48532 27.1283 10.4554 25.7067 12.3641 24.3633C14.277 23.0548 16.2708 21.6835 18.3455 20.2494L18.9062 19.7379L19.6545 20.1887C21.7292 21.6228 23.723 22.9941 25.6359 24.3026C27.5446 25.646 29.5147 27.0676 31.5462 28.5672C32.4056 29.2187 33.1849 29.5068 33.8839 29.4314C34.5786 29.3909 35.2874 29.0867 36.01 28.5188C36.596 28.0583 37.0605 27.5037 37.4037 26.8549C37.7427 26.241 37.9414 25.6899 38 25.2016C37.1098 24.5111 36.1346 23.7926 35.0742 23.0463C34.0138 22.2999 32.9185 21.5494 31.7884 20.7947C31.3614 20.5096 30.9342 20.227 30.5066 19.9468C31.9106 19.3617 32.939 18.5413 33.5921 17.4859C34.4011 16.1581 34.5381 14.5671 34.003 12.7127C33.8725 12.2604 33.6664 11.7727 33.3848 11.2497C33.0925 10.7461 32.7476 10.3149 32.35 9.95595C32.4396 9.58714 32.4826 9.14193 32.479 8.62032C32.4799 8.1138 32.3889 7.54393 32.2062 6.91072C32.0191 6.26243 31.7546 5.68547 31.4127 5.17985C31.0557 4.67859 30.6301 4.2788 30.1357 3.98051ZM24.5015 1.76679C24.5987 1.724 24.6972 1.68285 24.797 1.64335L24.5936 1.58619L24.5015 1.76679ZM25.7951 10.6716C25.8882 10.8244 25.978 10.9374 26.0644 11.0104L29.4944 9.65312C29.5413 9.47625 29.5786 9.29402 29.6061 9.10643C29.6185 8.92318 29.5856 8.69587 29.5073 8.4245C29.3681 7.94205 29.128 7.61937 28.787 7.45646C28.4309 7.2979 28.0041 7.29041 27.5066 7.43398C27.0694 7.56015 26.7077 7.72169 26.4215 7.91859C26.1354 8.11549 25.9182 8.32514 25.7701 8.54754C25.6112 8.78937 25.5192 9.03641 25.494 9.28866C25.4537 9.54526 25.4684 9.79417 25.538 10.0354C25.6163 10.3068 25.702 10.5189 25.7951 10.6716ZM22.78 54.4964C22.7477 54.4964 16.7154 54.4963 19.6832 54.4962C17.5879 54.4842 12.7764 54.0843 11.2485 53.2964C9.7226 52.4964 8.54 51.3764 7.70074 49.9364C6.88692 48.4964 6.48 46.8164 6.48 44.8964V43.5364V42.4564V29.4564C6.78519 29.4031 7.23025 29.3364 7.81519 29.2564C8.42556 29.1497 9.0105 29.0964 9.57 29.0964C10.8416 29.0964 11.7572 29.3231 12.3167 29.7764C12.8762 30.2297 13.1559 31.1097 13.1559 32.4164V42.4564V43.5364V44.7764C13.1559 46.0297 13.4865 47.0297 14.1478 47.7764C14.8141 48.4751 18.66 48.8348 19.6856 48.8555C16.7169 48.8561 22.7484 48.8564 22.78 48.8564C22.8116 48.8564 22.8431 48.8561 22.8744 48.8555C23.8992 48.8348 24.7324 48.4751 25.3741 47.7764C26.0607 47.0297 26.4041 46.0297 26.4041 44.7764V43.6164V42.4564V29.4564C26.7093 29.4031 27.1543 29.3364 27.7393 29.2564C28.3496 29.1497 28.9346 29.0964 29.4941 29.0964C30.7657 29.0964 31.6812 29.3231 32.2407 29.7764C32.8003 30.2297 33.08 31.1097 33.08 32.4164V42.4564V43.6164V44.8964C33.08 46.8164 32.6604 48.4964 31.8211 49.9364C31.0073 51.3764 29.8247 52.4964 28.2733 53.2964C26.7698 54.0847 24.9701 54.4846 22.874 54.4962L22.78 54.4964Z" fill="#FF1796"/>
</svg>
